HIERARCHY
ROOT Hip
{
  OFFSET 0.000000 0.000000 0.000000
  CHANNELS 6 Xposition Yposition Zposition Zrotation Xrotation Yrotation
  JOINT RHip
  {
    OFFSET 0.000000 0.000000 0.000000
    CHANNELS 3 Xposition Yposition Zposition
    End Site
    {
      OFFSET 0.000000 0.100000 0.000000
    }
  }
  JOINT RKnee
  {
    OFFSET 0.000000 0.000000 0.000000
    CHANNELS 3 Xposition Yposition Zposition
    End Site
    {
      OFFSET 0.000000 0.100000 0.000000
    }
  }
  JOINT RFoot
  {
    OFFSET 0.000000 0.000000 0.000000
    CHANNELS 3 Xposition Yposition Zposition
    End Site
    {
      OFFSET 0.000000 0.100000 0.000000
    }
  }
  JOINT LHip
  {
    OFFSET 0.000000 0.000000 0.000000
    CHANNELS 3 Xposition Yposition Zposition
    End Site
    {
      OFFSET 0.000000 0.100000 0.000000
    }
  }
  JOINT LKnee
  {
    OFFSET 0.000000 0.000000 0.000000
    CHANNELS 3 Xposition Yposition Zposition
    End Site
    {
      OFFSET 0.000000 0.100000 0.000000
    }
  }
  JOINT LFoot
  {
    OFFSET 0.000000 0.000000 0.000000
    CHANNELS 3 Xposition Yposition Zposition
    End Site
    {
      OFFSET 0.000000 0.100000 0.000000
    }
  }
  JOINT Spine
  {
    OFFSET 0.000000 0.000000 0.000000
    CHANNELS 3 Xposition Yposition Zposition
    End Site
    {
      OFFSET 0.000000 0.100000 0.000000
    }
  }
  JOINT Thorax
  {
    OFFSET 0.000000 0.000000 0.000000
    CHANNELS 3 Xposition Yposition Zposition
    End Site
    {
      OFFSET 0.000000 0.100000 0.000000
    }
  }
  JOINT Nose
  {
    OFFSET 0.000000 0.000000 0.000000
    CHANNELS 3 Xposition Yposition Zposition
    End Site
    {
      OFFSET 0.000000 0.100000 0.000000
    }
  }
  JOINT Head
  {
    OFFSET 0.000000 0.000000 0.000000
    CHANNELS 3 Xposition Yposition Zposition
    End Site
    {
      OFFSET 0.000000 0.100000 0.000000
    }
  }
  JOINT LShoulder
  {
    OFFSET 0.000000 0.000000 0.000000
    CHANNELS 3 Xposition Yposition Zposition
    End Site
    {
      OFFSET 0.000000 0.100000 0.000000
    }
  }
  JOINT LElbow
  {
    OFFSET 0.000000 0.000000 0.000000
    CHANNELS 3 Xposition Yposition Zposition
    End Site
    {
      OFFSET 0.000000 0.100000 0.000000
    }
  }
  JOINT LWrist
  {
    OFFSET 0.000000 0.000000 0.000000
    CHANNELS 3 Xposition Yposition Zposition
    End Site
    {
      OFFSET 0.000000 0.100000 0.000000
    }
  }
  JOINT RShoulder
  {
    OFFSET 0.000000 0.000000 0.000000
    CHANNELS 3 Xposition Yposition Zposition
    End Site
    {
      OFFSET 0.000000 0.100000 0.000000
    }
  }
  JOINT RElbow
  {
    OFFSET 0.000000 0.000000 0.000000
    CHANNELS 3 Xposition Yposition Zposition
    End Site
    {
      OFFSET 0.000000 0.100000 0.000000
    }
  }
  JOINT RWrist
  {
    OFFSET 0.000000 0.000000 0.000000
    CHANNELS 3 Xposition Yposition Zposition
    End Site
    {
      OFFSET 0.000000 0.100000 0.000000
    }
  }
}
MOTION
Frames: 15
Frame Time: 0.033333
0.083320 0.905190 0.000022 0.000000 0.000000 0.000000 0.052487 0.000723 0.047927 0.089525 -0.333823 -0.010433 0.075385 -0.706627 -0.037508 -0.052488 -0.000690 -0.047961 -0.026239 -0.303230 -0.116538 -0.101276 -0.685502 -0.058547 0.025523 0.223392 0.028302 0.060749 0.490289 0.052576 0.118690 0.583388 0.032214 0.085004 0.648333 0.074158 -0.002715 0.441258 -0.026774 -0.027845 0.211604 -0.177512 0.127922 0.166644 -0.122697 0.098374 0.440885 0.108921 0.071981 0.207244 0.238953 0.154804 0.192691 0.221008
0.085765 0.905190 0.000023 0.000000 0.000000 0.000000 0.052088 0.002925 0.050302 0.095479 -0.352562 -0.002102 0.078905 -0.740727 -0.017285 -0.052090 -0.002894 -0.050338 -0.037031 -0.330756 -0.117859 -0.114185 -0.723195 -0.053752 0.028443 0.231312 0.022709 0.065466 0.502415 0.042926 0.126404 0.600709 0.019699 0.095507 0.665627 0.060201 0.000542 0.449428 -0.039493 -0.021439 0.210939 -0.202078 0.140322 0.160109 -0.148516 0.103416 0.449686 0.105492 0.076883 0.209641 0.240866 0.160263 0.196727 0.210335
0.090214 0.905236 0.000019 0.000000 0.000000 0.000000 0.051126 0.004031 0.052794 0.100054 -0.356544 -0.002992 0.076355 -0.751609 -0.012893 -0.051128 -0.004001 -0.052822 -0.041612 -0.339406 -0.125318 -0.123996 -0.730165 -0.059304 0.031869 0.234907 0.020499 0.071566 0.507399 0.040438 0.136598 0.609388 0.016887 0.106981 0.671793 0.058390 0.006767 0.452845 -0.046395 -0.010415 0.212178 -0.219882 0.157180 0.159860 -0.168716 0.107434 0.452784 0.111122 0.077860 0.211832 0.263380 0.170594 0.208899 0.230849
0.096220 0.905467 0.000013 0.000000 0.000000 0.000000 0.051189 0.003844 0.054652 0.104583 -0.347938 -0.011438 0.072273 -0.740795 -0.021488 -0.051191 -0.003814 -0.054667 -0.040278 -0.330226 -0.136930 -0.131136 -0.709561 -0.073233 0.034997 0.233250 0.022057 0.077835 0.504356 0.045897 0.147213 0.608208 0.024450 0.117379 0.665416 0.070036 0.013593 0.451237 -0.045504 0.000458 0.215141 -0.226237 0.174480 0.165329 -0.179395 0.110893 0.449042 0.124335 0.075550 0.212141 0.298772 0.184104 0.224874 0.273820
0.103071 0.906151 0.000011 0.000000 0.000000 0.000000 0.052772 0.004111 0.056219 0.110454 -0.350969 -0.011159 0.076258 -0.746677 -0.017309 -0.052774 -0.004081 -0.056231 -0.040298 -0.334508 -0.140595 -0.140493 -0.711044 -0.074607 0.035598 0.233099 0.022040 0.079408 0.504535 0.047511 0.152114 0.609871 0.027342 0.122236 0.663608 0.074741 0.014717 0.452080 -0.046650 0.003649 0.216262 -0.230816 0.184933 0.168656 -0.187860 0.112443 0.447923 0.130159 0.075014 0.210177 0.310789 0.192173 0.232464 0.284544
0.110296 0.907489 0.000013 0.000000 0.000000 0.000000 0.052963 0.004554 0.057357 0.112821 -0.357429 -0.006162 0.079462 -0.758210 -0.011048 -0.052966 -0.004524 -0.057371 -0.037599 -0.343395 -0.138334 -0.146948 -0.719989 -0.069996 0.033969 0.234218 0.022053 0.076294 0.506974 0.047577 0.150802 0.612592 0.028211 0.120613 0.665721 0.073945 0.012785 0.454572 -0.047687 0.004975 0.215976 -0.232669 0.189870 0.171718 -0.191873 0.109168 0.449954 0.131408 0.073625 0.209101 0.308950 0.193683 0.237723 0.277585
0.117662 0.909547 0.000014 0.000000 0.000000 0.000000 0.050922 0.004664 0.058224 0.111347 -0.358787 -0.002935 0.077115 -0.762362 -0.012801 -0.050925 -0.004634 -0.058241 -0.029609 -0.346195 -0.136186 -0.149246 -0.718386 -0.069914 0.031812 0.234838 0.023838 0.071982 0.508376 0.050427 0.147367 0.613448 0.032476 0.116330 0.666830 0.075030 0.012096 0.456532 -0.045571 0.009764 0.215961 -0.230446 0.194691 0.177004 -0.189607 0.102454 0.452166 0.134811 0.069823 0.209860 0.310704 0.192711 0.247224 0.277540
0.124338 0.912207 0.000015 0.000000 0.000000 0.000000 0.048155 0.004423 0.059022 0.108862 -0.357783 -0.002547 0.071292 -0.762647 -0.018395 -0.048158 -0.004392 -0.059040 -0.018136 -0.345336 -0.134671 -0.150438 -0.709529 -0.071346 0.029842 0.234954 0.027004 0.068323 0.508711 0.056475 0.144184 0.613241 0.040529 0.112109 0.666413 0.080177 0.012998 0.457960 -0.040445 0.016849 0.216318 -0.224021 0.200808 0.185000 -0.179504 0.095266 0.453827 0.141538 0.065668 0.210807 0.316918 0.191724 0.259102 0.283086
0.129753 0.915437 0.000016 0.000000 0.000000 0.000000 0.047401 0.003479 0.059808 0.108434 -0.353722 -0.010812 0.061474 -0.757956 -0.028201 -0.047404 -0.003448 -0.059828 -0.005565 -0.339106 -0.134645 -0.153270 -0.690449 -0.069398 0.029246 0.233916 0.032440 0.067638 0.507117 0.068800 0.144271 0.611177 0.054696 0.111166 0.662281 0.095496 0.015097 0.458111 -0.030140 0.024474 0.216135 -0.211656 0.208583 0.196736 -0.159933 0.091897 0.454140 0.155288 0.064117 0.210216 0.333332 0.195818 0.271385 0.294021
0.134167 0.919257 0.000018 0.000000 0.000000 0.000000 0.049165 0.002632 0.061290 0.111567 -0.350473 -0.021822 0.051345 -0.753536 -0.034941 -0.049168 -0.002599 -0.061314 0.006189 -0.332131 -0.137396 -0.158734 -0.666981 -0.069064 0.030291 0.232160 0.038334 0.069851 0.504486 0.083861 0.148080 0.608740 0.070840 0.114075 0.655781 0.116145 0.017421 0.457146 -0.018657 0.030646 0.214714 -0.199254 0.217115 0.207936 -0.139537 0.092991 0.452833 0.172990 0.066136 0.207485 0.355851 0.205956 0.282337 0.305401
0.137757 0.923481 0.000020 0.000000 0.000000 0.000000 0.048862 0.002869 0.063482 0.114261 -0.354477 -0.019793 0.046368 -0.757817 -0.030434 -0.048865 -0.002835 -0.063508 0.019557 -0.332424 -0.139527 -0.161400 -0.652466 -0.078912 0.031117 0.231271 0.041800 0.071044 0.503087 0.093482 0.150729 0.608551 0.081583 0.116344 0.652282 0.127936 0.020122 0.456363 -0.012626 0.037048 0.212145 -0.193720 0.224311 0.212867 -0.126700 0.092152 0.450752 0.185151 0.068181 0.203635 0.368231 0.213327 0.290703 0.313607
0.140641 0.928016 0.000020 0.000000 0.000000 0.000000 0.045460 0.001829 0.064171 0.113553 -0.357441 -0.018347 0.041598 -0.757844 -0.036288 -0.045462 -0.001795 -0.064199 0.037747 -0.328527 -0.137659 -0.154996 -0.633919 -0.094192 0.032062 0.229510 0.047664 0.072487 0.499787 0.106625 0.151985 0.605795 0.096360 0.118472 0.647579 0.143454 0.025793 0.454136 -0.001887 0.048934 0.207015 -0.183451 0.230331 0.215944 -0.105663 0.089710 0.446915 0.198645 0.068442 0.197954 0.379849 0.217794 0.298843 0.333960
0.143107 0.932730 0.000020 0.000000 0.000000 0.000000 0.042134 -0.000542 0.064106 0.112530 -0.358289 -0.023509 0.037021 -0.752988 -0.050993 -0.042136 0.000577 -0.064132 0.058675 -0.319931 -0.135701 -0.143086 -0.610240 -0.110399 0.033817 0.226758 0.055285 0.075603 0.494484 0.122970 0.154189 0.600191 0.114217 0.122209 0.640161 0.164474 0.032865 0.450482 0.012491 0.062954 0.200130 -0.169169 0.235840 0.220292 -0.079348 0.089300 0.441889 0.214670 0.070991 0.191146 0.395869 0.224743 0.307169 0.362325
0.144945 0.937492 0.000020 0.000000 0.000000 0.000000 0.039626 -0.001676 0.066614 0.113888 -0.363736 -0.021146 0.038181 -0.756177 -0.054465 -0.039628 0.001711 -0.066641 0.081116 -0.318048 -0.134412 -0.130518 -0.598560 -0.119152 0.034974 0.225967 0.058065 0.077134 0.492229 0.129213 0.156304 0.597642 0.121541 0.124532 0.636685 0.172050 0.037252 0.448698 0.015665 0.072445 0.195850 -0.165984 0.240956 0.227045 -0.070413 0.088679 0.439773 0.223460 0.078795 0.187882 0.405637 0.231949 0.315484 0.378522
0.145419 0.942490 0.000020 0.000000 0.000000 0.000000 0.036366 -0.002211 0.070101 0.114818 -0.368937 -0.016016 0.040509 -0.760505 -0.059797 -0.036368 0.002245 -0.070128 0.105703 -0.315207 -0.130122 -0.115261 -0.590193 -0.120567 0.035435 0.226338 0.058452 0.077123 0.492045 0.129951 0.157818 0.596645 0.123314 0.125162 0.636020 0.171790 0.040641 0.448156 0.012898 0.081281 0.193836 -0.168833 0.245565 0.236641 -0.069005 0.086450 0.439959 0.227960 0.087910 0.187319 0.411953 0.237809 0.323325 0.387118
